<svg class="{{ with .class }}{{ . }} {{ end }}icon icon-category" width="14" height="16" viewBox="0 0 14 16"><path d="M1.765625 0h9.46875C12.214844 0 13 .746094 13 1.679688v11.660156C13 14.253906 12.214844 15 11.234375 15h-9.46875C.785156 15 0 14.253906 0 13.339844V1.679688C0 .746094.785156 0 1.765625 0zm4.308594 10.582031h3.679687c.609375 0 .609375.871094 0 .871094H6.074219c-.609375 0-.609375-.871094 0-.871094zm0-3.507812h3.679687c.609375 0 .609375.871093 0 .871093H6.074219c-.609375 0-.609375-.871093 0-.871093zm0-3.527344h3.679687c.609375 0 .609375.894531 0 .894531H6.074219c-.609375 0-.609375-.894531 0-.894531zm-2.351563 6.558594c1.265625 0 1.265625 1.824219 0 1.824219-1.242187 0-1.242187-1.824219 0-1.824219zm0-1.683594c1.265625 0 1.265625-1.824219 0-1.824219-1.242187 0-1.242187 1.824219 0 1.824219zm0-5.332031c1.265625 0 1.265625 1.804687 0 1.804687-1.242187 0-1.242187-1.804687 0-1.804687zM1.765625.914062h9.46875c.4375 0 .808594.351563.808594.765626v11.660156c0 .414062-.371094.746094-.808594.746094h-9.46875c-.4375 0-.808594-.332032-.808594-.746094V1.679688c0-.414063.371094-.765626.808594-.765626zm0 0" fill-rule="evenodd"/></svg>
